# xmcd
#
# Track frame offsets:
#	150
#	17854
#	37200
#	53781
#	72298
#	88356
#	103873
#	115723
#	131166
#
# Disc length: 1926 seconds
#
# Revision: 1
# Processed by: cddbd v1.5.2PL0 Copyright (c) Steve Scherf et al.
# Submitted via: CDRider 2.1
#
DISCID=84078409
DTITLE=Adam Wayde - Lovin' and Leavin'
DYEAR=1900
DGENRE=Country
TTITLE0=Never Gonna Feel That Way Again
TTITLE1=Your Not Welcome Here Anymore
TTITLE2=Long Way Back
TTITLE3=Big Freight Train
TTITLE4=Photographs
TTITLE5=Hard Times
TTITLE6=Words of Wisdom
TTITLE7=Good Morning Beautiful
TTITLE8=Right Where I Need to Be
EXTD=
EXTT0=
EXTT1=
EXTT2=
EXTT3=
EXTT4=
EXTT5=
EXTT6=
EXTT7=
EXTT8=
PLAYORDER=
